<svg xmlns="http://www.w3.org/2000/svg" viewBox="0 0 64 64" role="img" aria-label="Clippy">
  <defs>
    <linearGradient id="clipBody" x1="0%" y1="0%" x2="100%" y2="100%">
      <stop offset="0%" stop-color="#fde68a"/>
      <stop offset="100%" stop-color="#f59e0b"/>
    </linearGradient>
  </defs>
  <path fill="url(#clipBody)" stroke="#b45309" stroke-width="1.5" d="M40 8c8 2 14 10 12 20-1 7-6 12-12 14l-4 18c-1 4-6 5-9 2l-2-2c-3-3-2-8 1-10l3-14C18 30 14 20 18 12c4-8 14-12 22-4z"/>
  <ellipse cx="30" cy="24" rx="3.2" ry="4" fill="#fff"/>
  <ellipse cx="40" cy="22" rx="3.2" ry="4" fill="#fff"/>
  <circle cx="30.5" cy="25" r="1.6" fill="#1f2937"/>
  <circle cx="40.5" cy="23" r="1.6" fill="#1f2937"/>
  <path fill="none" stroke="#b45309" stroke-width="1.5" stroke-linecap="round" d="M27 33c3 2 8 2 12 0"/>
</svg>
