<svg xmlns="http://www.w3.org/2000/svg" width="255.74" height="50.9" viewBox="0 0 255.74 50.9"><style>.st0{fill:#fff}</style><path class="st0" d="M6.46.19l4.36 14.58L15.12.19h6.43l-8.17 22.27H8.29L0 .19zM24.36.19h6.11v22.27h-6.11zM35.85 22.46V.19h8.57c1.67-.03 3.33.27 4.88.88 1.33.51 2.52 1.3 3.51 2.32.96 1.03 1.68 2.25 2.14 3.58.51 1.38.78 2.84.79 4.32.03 1.58-.24 3.16-.79 4.65a10.18 10.18 0 01-2.32 3.53c-1.01 1.01-2.22 1.8-3.55 2.32-1.49.55-3.06.82-4.64.79l-8.59-.12zm13.59-11.17c.01-.79-.1-1.57-.33-2.32-.21-.66-.55-1.28-1-1.81-.45-.53-1.02-.95-1.67-1.21-.67-.29-1.39-.43-2.11-.42h-2.35v11.61h2.44c.74 0 1.46-.15 2.14-.44.62-.28 1.15-.7 1.58-1.23.46-.54.79-1.18.97-1.86.23-.75.34-1.54.33-2.32M75.77 17.14v5.32H59.89V.19h15.6v5.34h-9.47v3.13h8.08v4.95h-8.08v3.53zM86.31 11.61v10.85h-6.1V.19h4.76l8.94 11.42V.19h6.13v22.27h-4.83zM118.92 7.48c-.62-.39-1.28-.73-1.95-1.02-.62-.27-1.26-.5-1.9-.7-.66-.22-1.35-.33-2.04-.33-.45-.03-.9.06-1.3.26-.32.15-.51.48-.49.84-.01.27.09.53.28.72.24.22.51.4.81.51.42.19.86.34 1.3.46l1.74.53c.95.29 1.88.64 2.79 1.05.76.34 1.48.78 2.11 1.32.58.51 1.05 1.14 1.35 1.86.34.85.5 1.76.46 2.67.04 1.17-.21 2.34-.72 3.39-.46.87-1.13 1.62-1.95 2.16-.83.57-1.76.97-2.74 1.18-1 .24-2.02.36-3.04.37-.84-.01-1.68-.07-2.51-.19-.86-.14-1.72-.33-2.58-.53-.83-.23-1.64-.51-2.44-.84-.76-.29-1.49-.64-2.18-1.07l2.65-5.36c.74.47 1.52.88 2.32 1.23.75.35 1.53.63 2.32.86.84.24 1.71.36 2.58.37.48.04.96-.06 1.39-.28.25-.14.4-.41.4-.7-.01-.32-.15-.61-.4-.81-.33-.25-.7-.44-1.09-.58-.46-.16-.98-.32-1.58-.49-.6-.16-1.23-.37-1.9-.6-.87-.29-1.72-.64-2.53-1.07-.65-.35-1.25-.79-1.76-1.32-.45-.48-.8-1.05-1.02-1.67-.22-.71-.33-1.44-.32-2.18-.02-1.12.21-2.23.67-3.25.43-.9 1.06-1.7 1.83-2.32.76-.64 1.64-1.14 2.58-1.46 1.02-.33 2.09-.49 3.16-.49.78 0 1.56.08 2.32.23.79.15 1.56.35 2.32.6.7.22 1.38.49 2.04.79.63.28 1.18.53 1.67.79l-2.65 5.07zM125.09 11.15a11.11 11.11 0 013.02-7.57c1.02-1.07 2.23-1.93 3.58-2.53 3.35-1.41 7.15-1.28 10.4.35 1.49.81 2.72 2.04 3.53 3.53l-4.64 3.32c-.2-.48-.49-.91-.86-1.28-.34-.34-.73-.62-1.16-.84-.41-.21-.85-.36-1.3-.44a6.31 6.31 0 00-1.3-.14c-.81-.03-1.61.16-2.32.53-.61.33-1.14.79-1.55 1.35-.42.57-.73 1.2-.93 1.88a8.16 8.16 0 00-.28 2.09c-.01.79.11 1.57.35 2.32.21.68.55 1.32 1 1.88.44.54.99.98 1.6 1.3.67.33 1.41.5 2.16.49.43 0 .86-.05 1.28-.14.45-.1.88-.26 1.28-.49.41-.21.78-.49 1.09-.84.34-.37.6-.8.77-1.28l5.04 2.83c-.34.83-.86 1.57-1.51 2.18-.69.65-1.47 1.2-2.32 1.63-1.76.89-3.71 1.36-5.69 1.37-1.6.03-3.19-.31-4.64-1-1.31-.64-2.47-1.53-3.44-2.62-.99-1.08-1.78-2.33-2.32-3.69a11.15 11.15 0 01-.84-4.19M165.45 17.14v5.32h-15.88V.19h15.61v5.34h-9.48v3.13h8.08v4.95h-8.08v3.53zM176 11.61v10.85h-6.13V.19h4.78l8.94 11.42V.19h6.11v22.27h-4.86zM212.45 5.53h-6.4v16.93h-6.11V5.53h-6.43V.19h18.94zM232.22 17.14v5.32h-15.98V.19h15.6v5.34h-9.47v3.13h8.08v4.95h-8.08v3.53zM236.56 22.46V.19h10.22c1.04-.01 2.08.23 3.02.67.87.45 1.65 1.05 2.32 1.76.66.73 1.18 1.57 1.56 2.49.36.88.55 1.83.56 2.79.04 1.29-.24 2.56-.81 3.72a7.406 7.406 0 01-2.32 2.74l4.64 8.17h-6.97l-3.92-6.83h-2.32v6.76h-5.98zm6.11-12.17h3.85c.43-.03.82-.26 1.05-.63.35-.52.53-1.14.49-1.77.04-.64-.16-1.27-.56-1.76-.28-.35-.69-.57-1.14-.6h-3.69v4.76zM84.02 50.72v-22.3h9.59c1.04 0 2.08.23 3.02.67.88.44 1.66 1.04 2.32 1.76.66.73 1.19 1.57 1.56 2.48.37.89.56 1.85.56 2.81.01.98-.17 1.95-.53 2.86a8.04 8.04 0 01-1.49 2.48 7.13 7.13 0 01-2.32 1.72c-.93.45-1.96.67-2.99.65h-3.6v6.85h-6.12zm6.1-12.19h3.23c.41-.01.8-.19 1.07-.51.38-.54.56-1.2.49-1.86.08-.69-.13-1.38-.58-1.9-.3-.3-.69-.47-1.11-.49h-3.09v4.76zM115.16 50.9c-1.6.03-3.19-.3-4.64-.98-1.34-.61-2.54-1.48-3.55-2.55-.99-1.05-1.78-2.28-2.32-3.62-1.13-2.7-1.13-5.75 0-8.45.54-1.34 1.32-2.56 2.32-3.6 1.03-1.04 2.25-1.88 3.6-2.46 1.46-.64 3.05-.96 4.64-.93 1.6-.02 3.19.31 4.64.98 2.67 1.23 4.75 3.46 5.81 6.2.53 1.33.81 2.75.81 4.18-.01 1.45-.3 2.89-.86 4.23a11.73 11.73 0 01-2.32 3.58 11.67 11.67 0 01-3.6 2.49c-1.43.62-2.97.94-4.53.93m-5.04-11.31c-.01.74.09 1.47.3 2.18.2.68.53 1.32.95 1.88.43.54.96.98 1.58 1.3.72.37 1.52.55 2.32.51.8.02 1.6-.16 2.32-.51.62-.33 1.16-.8 1.58-1.37.42-.56.73-1.2.91-1.88.2-.7.3-1.43.3-2.16a7.6 7.6 0 00-.3-2.18c-.19-.68-.52-1.31-.97-1.86-.43-.55-.98-.99-1.6-1.3-.73-.34-1.52-.49-2.32-.46-.8-.03-1.6.14-2.32.49-.62.32-1.16.78-1.58 1.35-.44.56-.75 1.2-.93 1.88-.19.69-.27 1.41-.24 2.13M130.69 50.72v-22.3h10.24c1.04 0 2.08.23 3.02.67.87.45 1.65 1.05 2.32 1.76.65.73 1.17 1.57 1.53 2.48.38.89.58 1.84.58 2.81.01 1.26-.29 2.5-.86 3.62a7.406 7.406 0 01-2.32 2.74l4.64 8.2h-6.97l-3.79-6.85h-2.32v6.85h-6.07zm6.13-12.19h3.85c.43-.03.82-.26 1.04-.63.35-.51.52-1.12.49-1.74.05-.64-.15-1.28-.56-1.79-.28-.35-.69-.57-1.14-.6h-3.69v4.76zM170.49 33.76h-6.41v16.96h-6.17V33.76h-6.37v-5.34h18.95zM178.95 28.42h5.6l7.71 22.29h-6.2l-1.35-4.27h-5.9l-1.3 4.37h-6.29l7.73-22.39zm4.78 13.94l-1.97-6.97-2.07 6.97h4.04zM195.69 50.72v-22.3h6.11v16.96h10.1v5.34zM231.47 45.38v5.34h-15.86v-22.3h15.58v5.34h-9.47v3.14h8.17v4.9h-8.17v3.53zM242.02 39.76v10.96h-6.11v-22.3h4.64l8.94 11.34V28.42h6.13v22.3h-4.83zM1.79 38.94h72.34v1.32H1.79z"/></svg>