<?xml version="1.0" encoding="UTF-8"?>
<svg id="Layer_1" data-name="Layer 1" xmlns="http://www.w3.org/2000/svg" viewBox="0 0 339.2 67.41">
  <defs>
    <style>
      .cls-1, .cls-2 {
        fill: #fff;
      }

      .cls-2 {
        stroke: #fff;
        stroke-miterlimit: 10;
        stroke-width: 3.07px;
      }
    </style>
  </defs>
  <g>
    <path class="cls-1" d="m70.39,24.37h3.13l3.37,9.07,3.37-9.07h3.05l-5.21,12.97h-2.5l-5.21-12.97Z"/>
    <path class="cls-1" d="m85.43,24.37h2.83v12.88h-2.83v-12.88Z"/>
    <path class="cls-1" d="m91.48,24.37h5.02c4.05,0,6.84,2.78,6.84,6.4v.04c0,3.62-2.8,6.44-6.84,6.44h-5.02v-12.88Zm2.83,2.56v7.76h2.19c2.32,0,3.88-1.56,3.88-3.85v-.04c0-2.28-1.56-3.88-3.88-3.88h-2.19Z"/>
    <path class="cls-1" d="m105.88,24.37h9.71v2.52h-6.9v2.61h6.07v2.52h-6.07v2.7h6.99v2.52h-9.81v-12.88Z"/>
    <path class="cls-1" d="m118.21,24.37h2.61l6.04,7.93v-7.93h2.8v12.88h-2.41l-6.24-8.19v8.19h-2.8v-12.88Z"/>
    <path class="cls-1" d="m131.87,35.37l1.67-2.01c1.16.96,2.37,1.56,3.85,1.56,1.16,0,1.86-.46,1.86-1.21v-.04c0-.72-.44-1.09-2.59-1.64-2.59-.66-4.27-1.38-4.27-3.94v-.04c0-2.34,1.88-3.88,4.51-3.88,1.88,0,3.48.59,4.78,1.64l-1.47,2.13c-1.14-.79-2.26-1.27-3.35-1.27s-1.66.5-1.66,1.12v.04c0,.85.55,1.12,2.78,1.69,2.61.68,4.08,1.62,4.08,3.86v.04c0,2.56-1.95,3.99-4.73,3.99-1.95,0-3.92-.68-5.46-2.06Z"/>
    <path class="cls-1" d="m143.96,30.85v-.04c0-3.66,2.76-6.66,6.72-6.66,2.43,0,3.88.81,5.08,1.99l-1.8,2.08c-.99-.9-2.01-1.45-3.29-1.45-2.17,0-3.74,1.8-3.74,4.01v.04c0,2.21,1.53,4.05,3.74,4.05,1.47,0,2.37-.59,3.38-1.51l1.8,1.82c-1.32,1.42-2.8,2.3-5.28,2.3-3.79,0-6.6-2.93-6.6-6.62Z"/>
    <path class="cls-1" d="m158.11,24.37h9.71v2.52h-6.9v2.61h6.07v2.52h-6.07v2.7h6.99v2.52h-9.81v-12.88Z"/>
    <path class="cls-1" d="m170.44,24.37h2.61l6.04,7.93v-7.93h2.8v12.88h-2.41l-6.24-8.19v8.19h-2.8v-12.88Z"/>
    <path class="cls-1" d="m187.98,26.98h-3.92v-2.61h10.67v2.61h-3.92v10.27h-2.83v-10.27Z"/>
    <path class="cls-1" d="m196.91,24.37h9.71v2.52h-6.9v2.61h6.07v2.52h-6.07v2.7h6.99v2.52h-9.81v-12.88Z"/>
    <path class="cls-1" d="m209.24,24.37h5.89c1.64,0,2.91.46,3.75,1.31.72.72,1.1,1.73,1.1,2.94v.04c0,2.08-1.12,3.39-2.76,3.99l3.15,4.6h-3.31l-2.76-4.12h-2.23v4.12h-2.83v-12.88Zm5.7,6.26c1.38,0,2.17-.74,2.17-1.82v-.04c0-1.21-.85-1.84-2.23-1.84h-2.81v3.7h2.87Z"/>
    <path class="cls-1" d="m228.07,24.37h9.81v2.58h-6.97v2.74h6.14v2.58h-6.14v4.98h-2.83v-12.88Z"/>
    <path class="cls-1" d="m239.58,30.85v-.04c0-3.66,2.89-6.66,6.86-6.66s6.82,2.96,6.82,6.62v.04c0,3.66-2.89,6.66-6.86,6.66s-6.82-2.96-6.82-6.62Zm10.72,0v-.04c0-2.21-1.62-4.05-3.9-4.05s-3.86,1.8-3.86,4.01v.04c0,2.21,1.62,4.05,3.9,4.05s3.86-1.8,3.86-4.01Z"/>
    <path class="cls-1" d="m255.79,24.37h5.89c1.64,0,2.91.46,3.75,1.31.72.72,1.1,1.73,1.1,2.94v.04c0,2.08-1.12,3.39-2.76,3.99l3.15,4.6h-3.31l-2.76-4.12h-2.23v4.12h-2.83v-12.88Zm5.7,6.26c1.38,0,2.17-.74,2.17-1.82v-.04c0-1.21-.85-1.84-2.23-1.84h-2.81v3.7h2.87Z"/>
    <path class="cls-1" d="m5.52,48.76h2.61l5.52,12.97h-2.96l-1.18-2.89h-5.44l-1.18,2.89H0l5.52-12.97Zm2.98,7.58l-1.71-4.18-1.71,4.18h3.42Z"/>
    <path class="cls-1" d="m14.98,56.21v-7.36h2.83v7.29c0,2.1,1.05,3.18,2.78,3.18s2.78-1.05,2.78-3.09v-7.38h2.83v7.27c0,3.9-2.19,5.81-5.65,5.81s-5.57-1.93-5.57-5.72Z"/>
    <path class="cls-1" d="m32.1,51.46h-3.92v-2.61h10.67v2.61h-3.92v10.27h-2.83v-10.27Z"/>
    <path class="cls-1" d="m39.9,55.32v-.04c0-3.66,2.89-6.66,6.86-6.66s6.82,2.96,6.82,6.62v.04c0,3.66-2.89,6.66-6.86,6.66s-6.82-2.96-6.82-6.62Zm10.72,0v-.04c0-2.21-1.62-4.05-3.9-4.05s-3.86,1.8-3.86,4.01v.04c0,2.21,1.62,4.05,3.9,4.05s3.86-1.8,3.86-4.01Z"/>
    <path class="cls-1" d="m56.12,48.85h3.05l3.38,5.45,3.39-5.45h3.05v12.88h-2.81v-8.41l-3.62,5.5h-.07l-3.59-5.45v8.35h-2.78v-12.88Z"/>
    <path class="cls-1" d="m76.51,48.76h2.61l5.52,12.97h-2.96l-1.18-2.89h-5.44l-1.18,2.89h-2.89l5.52-12.97Zm2.98,7.58l-1.71-4.18-1.71,4.18h3.42Z"/>
    <path class="cls-1" d="m87.98,51.46h-3.92v-2.61h10.67v2.61h-3.92v10.27h-2.83v-10.27Z"/>
    <path class="cls-1" d="m97.03,48.85h2.83v12.88h-2.83v-12.88Z"/>
    <path class="cls-1" d="m102.52,55.32v-.04c0-3.66,2.89-6.66,6.86-6.66s6.82,2.96,6.82,6.62v.04c0,3.66-2.89,6.66-6.86,6.66s-6.83-2.96-6.83-6.62Zm10.72,0v-.04c0-2.21-1.62-4.05-3.9-4.05s-3.86,1.8-3.86,4.01v.04c0,2.21,1.62,4.05,3.9,4.05s3.86-1.8,3.86-4.01Z"/>
    <path class="cls-1" d="m118.74,48.85h2.61l6.03,7.93v-7.93h2.8v12.88h-2.41l-6.24-8.19v8.19h-2.8v-12.88Z"/>
    <path class="cls-1" d="m145.97,60.47c-1.05.86-2.28,1.43-3.77,1.43-2.46,0-4.32-1.43-4.32-3.72v-.04c0-1.64.88-2.8,2.5-3.53-.63-.88-.9-1.69-.9-2.58v-.04c0-1.77,1.42-3.38,3.9-3.38,2.19,0,3.62,1.43,3.62,3.24v.04c0,1.73-1.1,2.74-2.7,3.37l1.71,1.71c.42-.66.85-1.42,1.25-2.21l2.08,1.14c-.5.9-1.05,1.86-1.69,2.72l1.89,1.89-2.08,1.45-1.49-1.51Zm-1.58-1.62l-2.46-2.5c-.85.44-1.2,1.07-1.2,1.69v.04c0,.9.75,1.51,1.8,1.51.64,0,1.27-.28,1.86-.74Zm.15-6.79v-.04c0-.74-.5-1.2-1.21-1.2-.75,0-1.25.53-1.25,1.31v.04c0,.57.22.99.75,1.6,1.12-.42,1.71-.9,1.71-1.71Z"/>
    <path class="cls-1" d="m157.3,51.53h-3.92v-2.61h10.67v2.61h-3.92v10.27h-2.83v-10.27Z"/>
    <path class="cls-1" d="m166.23,48.91h9.71v2.52h-6.9v2.61h6.07v2.52h-6.07v2.71h6.99v2.52h-9.81v-12.88Z"/>
    <path class="cls-1" d="m178.56,48.91h2.83v5.63l5.22-5.63h3.42l-5.24,5.46,5.48,7.41h-3.4l-3.99-5.48-1.49,1.55v3.94h-2.83v-12.88Z"/>
    <path class="cls-1" d="m192,48.91h2.61l6.04,7.93v-7.93h2.8v12.88h-2.41l-6.24-8.19v8.19h-2.8v-12.88Z"/>
    <path class="cls-1" d="m205.97,55.39v-.04c0-3.66,2.89-6.66,6.86-6.66s6.82,2.96,6.82,6.62v.04c0,3.66-2.89,6.66-6.86,6.66s-6.82-2.96-6.82-6.62Zm10.72,0v-.04c0-2.21-1.62-4.05-3.9-4.05s-3.86,1.8-3.86,4.01v.04c0,2.21,1.62,4.05,3.9,4.05s3.86-1.8,3.86-4.01Z"/>
    <path class="cls-1" d="m222.18,48.91h2.83v10.3h6.42v2.57h-9.25v-12.88Z"/>
    <path class="cls-1" d="m232.27,55.39v-.04c0-3.66,2.89-6.66,6.86-6.66s6.82,2.96,6.82,6.62v.04c0,3.66-2.89,6.66-6.86,6.66s-6.82-2.96-6.82-6.62Zm10.72,0v-.04c0-2.21-1.62-4.05-3.9-4.05s-3.86,1.8-3.86,4.01v.04c0,2.21,1.62,4.05,3.9,4.05s3.86-1.8,3.86-4.01Z"/>
    <path class="cls-1" d="m247.91,55.39v-.04c0-3.66,2.85-6.66,6.75-6.66,2.32,0,3.72.63,5.06,1.77l-1.79,2.15c-.99-.83-1.88-1.31-3.37-1.31-2.06,0-3.7,1.82-3.7,4.01v.04c0,2.35,1.62,4.08,3.9,4.08,1.03,0,1.95-.26,2.67-.77v-1.84h-2.85v-2.45h5.59v5.59c-1.33,1.12-3.15,2.04-5.5,2.04-4.01,0-6.77-2.81-6.77-6.62Z"/>
    <path class="cls-1" d="m263.04,48.91h2.83v12.88h-2.83v-12.88Z"/>
  </g>
  <line class="cls-2" x1="277.98" y1="18.67" x2="277.98" y2="67.41"/>
  <line class="cls-2" x1="337.67" y1="18.67" x2="337.67" y2="67.41"/>
  <line class="cls-2" x1="297.64" y1="18.67" x2="297.64" y2="67.41"/>
  <line class="cls-2" x1="307.47" y1="36.62" x2="307.47" y2="67.41"/>
  <line class="cls-2" x1="287.81" y1="18.67" x2="287.81" y2="54.57"/>
  <g>
    <path id="path12211" class="cls-1" d="m84.6,4.97c2.18,4.42.37,9.77-4.05,11.96-4.42,2.18-9.77.37-11.95-4.05-2.18-4.42-.37-9.77,4.04-11.95,4.42-2.18,9.77-.38,11.95,4.04h0Zm-2.37,1.17c-1.54-3.11-5.31-4.39-8.42-2.85-3.11,1.54-4.39,5.31-2.85,8.42,1.54,3.11,5.31,4.39,8.42,2.85,3.11-1.54,4.39-5.31,2.85-8.42h0Z"/>
    <path id="path12215" class="cls-1" d="m74.72,5.11c-2.11,1.04-2.98,3.59-1.94,5.7,1.04,2.11,3.59,2.98,5.7,1.94,0,0,.01,0,.02,0,2.11-1.04,2.98-3.59,1.94-5.7-1.04-2.11-3.59-2.98-5.7-1.94,0,0-.01,0-.02,0Z"/>
  </g>
  <g>
    <path id="path12211-2" data-name="path12211" class="cls-1" d="m62.88,25.85c2.18,4.42.37,9.77-4.05,11.96-4.42,2.18-9.77.37-11.95-4.05-2.18-4.42-.37-9.77,4.04-11.95,4.42-2.18,9.77-.38,11.95,4.04h0Zm-2.37,1.17c-1.54-3.11-5.31-4.39-8.42-2.85-3.11,1.54-4.39,5.31-2.85,8.42,1.54,3.11,5.31,4.39,8.42,2.85,3.11-1.54,4.39-5.31,2.85-8.42h0Z"/>
    <path id="path12215-2" data-name="path12215" class="cls-1" d="m53,25.99c-2.11,1.04-2.98,3.59-1.94,5.7,1.04,2.11,3.59,2.98,5.7,1.94,0,0,.01,0,.02,0,2.11-1.04,2.98-3.59,1.94-5.7-1.04-2.11-3.59-2.98-5.7-1.94,0,0-.01,0-.02,0Z"/>
  </g>
  <g>
    <path id="path12211-3" data-name="path12211" class="cls-1" d="m330.57,25.19c2.18,4.42.37,9.77-4.05,11.96-4.42,2.18-9.77.37-11.95-4.05-2.18-4.42-.37-9.77,4.04-11.95,4.42-2.18,9.77-.38,11.95,4.04h0Zm-2.37,1.17c-1.54-3.11-5.31-4.39-8.42-2.85-3.11,1.54-4.39,5.31-2.85,8.42,1.54,3.11,5.31,4.39,8.42,2.85,3.11-1.54,4.39-5.31,2.85-8.42h0Z"/>
    <path id="path12215-3" data-name="path12215" class="cls-1" d="m320.68,25.33c-2.11,1.04-2.98,3.59-1.94,5.7,1.04,2.11,3.59,2.98,5.7,1.94,0,0,.01,0,.02,0,2.11-1.04,2.98-3.59,1.94-5.7-1.04-2.11-3.59-2.98-5.7-1.94,0,0-.01,0-.02,0Z"/>
  </g>
</svg>